<svg width="32" height="32" viewBox="0 0 32 32" fill="none" xmlns="http://www.w3.org/2000/svg">
<path fill-rule="evenodd" clip-rule="evenodd" d="M1.70666 2.95138C1.892 1.85938 2.84533 1.10071 3.936 1.10071L4.13066 1.10071C4.17576 1.10066 4.22039 1.10976 4.26187 1.12747C4.30334 1.14517 4.34079 1.1711 4.37196 1.2037C4.40312 1.23629 4.42734 1.27487 4.44316 1.3171C4.45898 1.35933 4.46607 1.40433 4.464 1.44938L4.16733 7.96271C4.16238 8.07206 4.17902 8.18131 4.2163 8.28422C4.25357 8.38714 4.31076 8.48171 4.38458 8.56253C4.4584 8.64334 4.54742 8.70883 4.64655 8.75524C4.74568 8.80166 4.85298 8.8281 4.96233 8.83304C5.07168 8.83799 5.18093 8.82135 5.28384 8.78407C5.38676 8.7468 5.48133 8.68962 5.56215 8.61579C5.64296 8.54197 5.70845 8.45295 5.75487 8.35382C5.80128 8.25469 5.82772 8.14739 5.83266 8.03804L6.13333 1.41938C6.13711 1.33354 6.17389 1.25247 6.236 1.1931C6.29811 1.13372 6.38074 1.10063 6.46666 1.10071L8.2 1.10071C8.28592 1.10063 8.36855 1.13372 8.43066 1.1931C8.49277 1.25247 8.52955 1.33354 8.53333 1.41938L8.834 8.03804C8.84408 8.25888 8.94147 8.46667 9.10475 8.6157C9.26803 8.76472 9.48383 8.84279 9.70466 8.83271C9.9255 8.82263 10.1333 8.72524 10.2823 8.56196C10.4313 8.39867 10.5094 8.18288 10.4993 7.96204L10.2033 1.44938C10.2013 1.40433 10.2083 1.35933 10.2242 1.3171C10.24 1.27487 10.2642 1.23629 10.2954 1.2037C10.3265 1.1711 10.364 1.14517 10.4055 1.12747C10.4469 1.10976 10.4916 1.10066 10.5367 1.10071L10.73 1.10071C11.8207 1.10071 12.774 1.85871 12.9593 2.95071C13.268 4.77338 13.7 7.96004 13.6653 11.368C13.646 13.2614 12.3787 14.9634 10.39 15.4087C10.0993 15.4745 9.79533 15.5336 9.478 15.586L10.706 27.282C10.89 29.034 9.79933 30.7947 7.98333 31.0474C7.76817 31.0803 7.55098 31.0981 7.33333 31.1007C7.11591 31.0981 6.89893 31.0803 6.684 31.0474C4.868 30.794 3.77733 29.034 3.96133 27.282L5.18933 15.5867C4.8839 15.5364 4.57999 15.4773 4.278 15.4094C2.28866 14.964 1.02133 13.262 1.002 11.3687C0.96733 7.96071 1.39866 4.77404 1.70666 2.95138ZM29.3333 1.66671C21.4173 1.66671 15 8.08404 15 16C15 23.916 21.4173 30.3334 29.3333 30.3334C29.5985 30.3334 29.8529 30.228 30.0404 30.0405C30.228 29.8529 30.3333 29.5986 30.3333 29.3334L30.3333 24.9454C30.0012 24.9815 29.6674 24.9997 29.3333 25C24.3627 25 20.3333 20.9707 20.3333 16C20.3333 11.0294 24.3627 7.00004 29.3333 7.00004C29.6716 7.00004 30.0049 7.01826 30.3333 7.05471L30.3333 2.66671C30.3333 2.40149 30.228 2.14714 30.0404 1.9596C29.8529 1.77207 29.5985 1.66671 29.3333 1.66671ZM29.3333 23C29.6733 23 30.0067 22.9765 30.3333 22.9294L30.3333 9.07071C30.002 9.02437 29.6679 9.00076 29.3333 9.00004C25.4673 9.00004 22.3333 12.134 22.3333 16C22.3333 19.866 25.4673 23 29.3333 23Z" fill="#0BC2F5"/>
</svg>
